<svg id="Layer_1" data-name="Layer 1" xmlns="http://www.w3.org/2000/svg" viewBox="0 0 529.26 124.43"><defs><style>.cls-1,.cls-2{fill:#fff;}.cls-1{stroke:#fff;stroke-miterlimit:10;}.cls-2{font-size:20px;font-family:BookmanOldStyle-Bold, Bookman Old Style;font-weight:700;}.cls-3{font-size:81.55px;}.cls-3,.cls-4,.cls-5,.cls-6,.cls-7{fill:#7c1223;font-family:EthnocentricRg-Regular, Ethnocentric;}.cls-4{font-size:81.43px;}.cls-5{font-size:82.49px;}.cls-6{font-size:81.21px;}.cls-7{font-size:83.04px;}</style></defs><path class="cls-1" d="M.5.5H490.34a38.41,38.41,0,0,1,38.41,38.41v61.16a0,0,0,0,1,0,0H39.83A39.33,39.33,0,0,1,.5,60.74V.5a0,0,0,0,1,0,0Z"/><text class="cls-2" transform="translate(279.15 117.2)">I N F O R M A T I Q U E</text><text class="cls-3" transform="translate(29.48 74.92) scale(0.85 1)">H</text><text class="cls-4" transform="translate(190.51 74.88) scale(0.82 1)">G</text><text class="cls-5" transform="translate(90.83 75.19) scale(0.82 1)">A</text><text class="cls-6" transform="translate(252.52 74.82) scale(0.83 1)">R</text><text class="cls-7" transform="translate(316.88 75.35) scale(0.81 1)">O</text><text class="cls-7" transform="translate(386.84 75.35) scale(0.81 1)">U</text><text class="cls-7" transform="translate(451.38 75.35) scale(0.81 1)">P</text></svg>